<svg width="680" height="195" viewBox="0 0 680 195" fill="none" xmlns="http://www.w3.org/2000/svg">
<path fill-rule="evenodd" clip-rule="evenodd" d="M138.861 60.457C138.861 70.855 136.406 80.6032 131.495 89.7015C126.767 98.7998 119.219 106.134 108.852 111.704C98.6671 117.275 85.754 120.06 70.1127 120.06H38.1937V156.415L0 194.703V0.297028H70.1127C84.8446 0.297028 97.394 2.89653 107.761 8.09555C118.128 13.2946 125.857 20.4432 130.95 29.5415C136.224 38.6397 138.861 48.9449 138.861 60.457ZM91.9377 81.3459C86.8452 86.1736 79.0246 88.5874 68.4759 88.5874H38.1937V32.0481H68.4759C89.2096 32.0481 99.5764 41.5178 99.5764 60.457C99.5764 69.3696 97.0302 76.3326 91.9377 81.3459Z" fill="url(#paint0_linear_790_2)"/>
<path d="M185.795 116H156.605V66.9863H167.646V107.045H185.795V116ZM236.049 116H224.017L220.531 105.097H203.099L199.647 116H187.684L205.526 66.9863H218.617L236.049 116ZM218.002 96.6201L212.738 80.1455C212.351 78.915 212.077 77.4453 211.918 75.7363H211.644C211.53 77.1719 211.246 78.596 210.79 80.0088L205.458 96.6201H218.002ZM280.663 112.719C275.878 115.476 269.93 116.854 262.821 116.854C254.937 116.854 248.716 114.678 244.159 110.326C239.624 105.951 237.357 99.9355 237.357 92.2793C237.357 84.5775 239.841 78.2998 244.808 73.4463C249.776 68.5928 256.384 66.166 264.632 66.166C269.828 66.166 274.408 66.8838 278.373 68.3193V78.6758C274.59 76.4883 269.964 75.3945 264.496 75.3945C259.916 75.3945 256.179 76.887 253.285 79.8721C250.414 82.8343 248.978 86.7992 248.978 91.7666C248.978 96.8024 250.266 100.699 252.84 103.456C255.438 106.213 258.936 107.592 263.334 107.592C265.977 107.592 268.073 107.216 269.623 106.464V96.8936H259.813V88.0752H280.663V112.719ZM329.105 94.7744C329.105 109.494 322.246 116.854 308.529 116.854C295.221 116.854 288.568 109.665 288.568 95.2871V66.9863H299.642V95.4238C299.642 103.354 302.741 107.318 308.939 107.318C315.023 107.318 318.065 103.49 318.065 95.834V66.9863H329.105V94.7744ZM368.148 116H338.753V66.9863H367.02V75.9756H349.793V86.8789H365.823V95.834H349.793V107.045H368.148V116ZM410.096 114.257C406.518 115.989 401.847 116.854 396.082 116.854C388.562 116.854 382.649 114.644 378.343 110.224C374.036 105.803 371.883 99.9128 371.883 92.5527C371.883 84.7142 374.298 78.3568 379.129 73.4805C383.982 68.6042 390.271 66.166 397.996 66.166C402.781 66.166 406.814 66.7699 410.096 67.9775V78.6074C406.814 76.6478 403.077 75.668 398.885 75.668C394.282 75.668 390.568 77.1149 387.742 80.0088C384.917 82.9027 383.504 86.8219 383.504 91.7666C383.504 96.5062 384.837 100.289 387.503 103.114C390.169 105.917 393.758 107.318 398.27 107.318C402.576 107.318 406.518 106.27 410.096 104.174V114.257ZM460.008 116H448.933V96.0391H428.631V116H417.591V66.9863H428.631V86.5371H448.933V66.9863H460.008V116ZM499.597 116H470.203V66.9863H498.469V75.9756H481.243V86.8789H497.273V95.834H481.243V107.045H499.597V116ZM550.535 116H538.503L535.017 105.097H517.585L514.133 116H502.17L520.012 66.9863H533.103L550.535 116ZM532.488 96.6201L527.224 80.1455C526.837 78.915 526.563 77.4453 526.404 75.7363H526.13C526.016 77.1719 525.732 78.596 525.276 80.0088L519.944 96.6201H532.488ZM585.1 75.9756H571.12V116H560.046V75.9756H546.135V66.9863H585.1V75.9756Z" fill="white"/>
<defs>
<linearGradient id="paint0_linear_790_2" x1="0" y1="0.297028" x2="1.43285e-06" y2="194.703" gradientUnits="userSpaceOnUse">
<stop stop-color="#9BA6E2"/>
<stop offset="1" stop-color="#4463C5"/>
</linearGradient>
</defs>
</svg>
